HIERARCHY
ROOT Hips
{
    OFFSET 0.0 0.0 0.0
    CHANNELS 6 Xposition Yposition Zposition Zrotation Xrotation Yrotation
    JOINT LeftHipJoint
    {
        OFFSET 0.1 0.0 0.0
        CHANNELS 3 Zrotation Xrotation Yrotation
        JOINT LeftUpLeg
        {
            OFFSET 123.62487617582268 0.0 0.0
            CHANNELS 3 Zrotation Xrotation Yrotation
            JOINT LeftLeg
            {
                OFFSET 0.0 0.0 -395.8966023889336
                CHANNELS 3 Zrotation Xrotation Yrotation
                JOINT LeftFoot
                {
                    OFFSET 0.0 0.0 -384.03536469858375
                    CHANNELS 3 Zrotation Xrotation Yrotation
                    End Site
                    {
                        OFFSET 0.0 -0.1 0.0
                    }
                }
            }
        }
    }
    JOINT LowerBack
    {
        OFFSET 0.0 0.0 0.1
        CHANNELS 3 Zrotation Xrotation Yrotation
        JOINT Spine
        {
            OFFSET 0.0 0.0 223.43927475031617
            CHANNELS 3 Zrotation Xrotation Yrotation
            JOINT Spine1
            {
                OFFSET 0.0 0.0 250.8962740022711
                CHANNELS 3 Zrotation Xrotation Yrotation
                JOINT LeftShoulder
                {
                    OFFSET 0.1 0.0 0.0
                    CHANNELS 3 Zrotation Xrotation Yrotation
                    JOINT LeftArm
                    {
                        OFFSET 143.05115553040446 0.0 0.0
                        CHANNELS 3 Zrotation Xrotation Yrotation
                        JOINT LeftForeArm
                        {
                            OFFSET 272.74290209047086 0.0 0.0
                            CHANNELS 3 Zrotation Xrotation Yrotation
                            JOINT LeftHand
                            {
                                OFFSET 242.79348491843572 0.0 0.0
                                CHANNELS 3 Zrotation Xrotation Yrotation
                                End Site
                                {
                                    OFFSET 0.1 0.0 0.0
                                }
                            }
                        }
                    }
                }
                JOINT Neck
                {
                    OFFSET 0.0 0.0 0.1
                    CHANNELS 3 Zrotation Xrotation Yrotation
                    JOINT Neck1
                    {
                        OFFSET 0.0 0.0 107.52106244420354
                        CHANNELS 3 Zrotation Xrotation Yrotation
                        End Site
                        {
                            OFFSET 0.0 0.0 110.21247070304346
                        }
                    }
                }
                JOINT RightShoulder
                {
                    OFFSET -0.1 0.0 0.0
                    CHANNELS 3 Zrotation Xrotation Yrotation
                    JOINT RightArm
                    {
                        OFFSET -143.05115553040446 0.0 0.0
                        CHANNELS 3 Zrotation Xrotation Yrotation
                        JOINT RightForeArm
                        {
                            OFFSET -272.74290209047086 0.0 0.0
                            CHANNELS 3 Zrotation Xrotation Yrotation
                            JOINT RightHand
                            {
                                OFFSET -242.79348491843572 0.0 0.0
                                CHANNELS 3 Zrotation Xrotation Yrotation
                                End Site
                                {
                                    OFFSET -0.1 0.0 0.0
                                }
                            }
                        }
                    }
                }
            }
        }
    }
    JOINT RightHipJoint
    {
        OFFSET -0.1 0.0 0.0
        CHANNELS 3 Zrotation Xrotation Yrotation
        JOINT RightUpLeg
        {
            OFFSET -123.62487617582268 0.0 0.0
            CHANNELS 3 Zrotation Xrotation Yrotation
            JOINT RightLeg
            {
                OFFSET 0.0 0.0 -395.8966023889336
                CHANNELS 3 Zrotation Xrotation Yrotation
                JOINT RightFoot
                {
                    OFFSET 0.0 0.0 -384.03536469858375
                    CHANNELS 3 Zrotation Xrotation Yrotation
                    End Site
                    {
                        OFFSET 0.0 -0.1 0.0
                    }
                }
            }
        }
    }
}
MOTION
Frames: 4
Frame Time: 0.03333333333333333
0.0 0.0 771.5299988148025 27.913309939135438 11.85646866252539 4.884189423425778 5.517382872562698e-33 1.5902773407317584e-15 -3.975693351829396e-16 -0.4580814652764856 -33.785458358825764 2.0640447387514063 1.268218561689759 23.68314543618007 1.222938518883581 0.0 0.0 -7.578665451924786e-16 5.517382872562698e-33 1.5902773407317584e-15 -3.975693351829396e-16 0.06072674490862387 5.0498173260567905 2.278960533252668 0.30302058653582403 2.7787703656268584e-15 -1.5976309690198402e-15 0.0 0.0 -7.951386703658792e-16 -23.193645656668643 5.684815857621616 73.12469329655269 -21.83037259213099 3.688317745110314e-16 5.4359787853050184e-15 0.0 0.0 -1.2610402350333866e-15 0.0 0.0 -7.951386703658792e-16 -2.911327438943797 8.368492422202438 -3.946894084923401 0.0 0.0 -7.951386703658792e-16 24.491684193294887 3.5462016606833893 -70.29558783828405 41.66164238555698 -8.409057770065245e-16 -2.0098009870267677e-14 6.3611093629270335e-15 0.0 0.0 5.517382872562698e-33 1.5902773407317584e-15 -3.975693351829396e-16 -0.41687778827611593 -31.14275260586979 0.18253045371950843 0.4289325572883369 23.47490510906823 -3.0228662234186645 0.0 0.0 -1.987846675914698e-16
0.0 0.0 771.5299988148025 27.846836704568652 11.885693270856315 4.9120299079584075 0.0 -1.9878466759146976e-15 0.0 -0.5194082424656342 -34.00084184404473 2.0723403728025525 1.3224641910746022 23.753069332783163 1.1636520628288705 0.0 0.0 9.93923337957349e-17 0.0 -1.9878466759146976e-15 0.0 0.06843007822178024 5.061180984630516 2.1413889241381416 0.22535299375242285 -1.1895783001844757e-15 1.5926198148570575e-15 0.0 0.0 7.951386703658792e-16 -23.243923402660347 5.756971526779476 73.2785989296871 -21.887784413355607 -1.2867223240879215e-15 1.2936845384752992e-14 0.0 0.0 -5.193249440827148e-15 0.0 0.0 7.951386703658792e-16 -2.803423986617073 8.311220252782148 -3.9364015570062016 0.0 0.0 7.951386703658792e-16 23.863828544579388 3.6276667387748236 -70.09761599020149 42.93571300752475 2.2283230241622086e-15 2.3047315783715495e-14 0.0 0.0 1.5902773407317584e-15 0.0 -1.9878466759146976e-15 0.0 -0.4720329729515669 -31.33184742253878 0.2217612622624106 0.49251533976422135 23.576163612614344 -3.0892233245629495 0.0 0.0 -1.987846675914698e-16
0.0 0.0 771.5299988148025 27.78548818779386 11.938582919316515 4.978170883970671 -4.138037154422024e-33 -3.975693351829396e-16 -1.1927080055488188e-15 -0.5550902402854222 -34.208350622209636 2.0745080353381398 1.3563280159640712 23.864125087181133 1.1591712285577955 0.0 0.0 -4.2241741863187335e-16 -4.138037154422024e-33 -3.975693351829396e-16 -1.1927080055488188e-15 0.07181402612970791 5.010357297020854 1.9235607550865492 0.15097056942019657 2.3854139408924067e-15 -3.1427053823153742e-18 0.0 0.0 7.951386703658792e-16 -23.303986857542135 5.827959040430534 73.4758393949389 -21.832412229130043 1.9595867964632657e-15 -7.011417461560692e-15 0.0 0.0 2.031330821950332e-15 0.0 0.0 7.951386703658792e-16 -2.605958490378242 8.295988870302514 -3.868008910748233 0.0 0.0 7.951386703658792e-16 23.086646179199104 3.7488066723574813 -69.83605132297573 44.243149561180026 -2.3954228102785185e-15 -5.8928483679045525e-15 0.0 0.0 -1.5902773407317584e-15 -4.138037154422024e-33 -3.975693351829396e-16 -1.1927080055488188e-15 -0.5029123828122561 -31.463983499230952 0.19453956228986585 0.5031373753601253 23.499516533233752 -3.053482716930147 0.0 0.0 -9.93923337957349e-17
0.0 0.0 771.5299988148025 27.756214260959585 11.924934901202116 5.011847321567893 0.0 0.0 -7.951386703658792e-16 -0.5871806191847232 -34.19345687395358 2.0707003293732966 1.379228870054523 23.849882245506475 1.1083982031264428 0.0 0.0 7.702905869169454e-16 0.0 0.0 -7.951386703658792e-16 0.07516800977800582 4.955831837409375 1.802610895952965 0.07360381735355224 1.2768226110511563e-18 1.9878462658538595e-15 -5.517382872562698e-33 -1.5902773407317584e-15 -3.975693351829396e-16 -23.756165302875203 6.236048005094156 73.60653610771004 -21.89510881930412 2.497456970487128e-16 -4.431325256926887e-15 0.0 0.0 1.758001904012061e-15 -5.517382872562698e-33 -1.5902773407317584e-15 -3.975693351829396e-16 -2.3727550920946876 8.348643229730587 -3.9303989826896313 -5.517382872562698e-33 -1.5902773407317584e-15 -3.975693351829396e-16 22.221155686101934 3.9401605600149248 -69.6830924211645 45.773880446785576 -6.316563448651728e-15 9.571211588001303e-15 0.0 0.0 1.5902773407317584e-15 0.0 0.0 -7.951386703658792e-16 -0.5305511905833696 -31.38674945574446 0.10103895988106917 0.48284770306041397 23.343988982239637 -2.9327892136867573 0.0 0.0 9.93923337957349e-17
